Coordinates
version=1
nRows=30
nColumns=38
inDegrees=no

Units are S.I. units (second, meters, Newtons, ...)
If the header above contains a line with 'inDegrees', this indicates whether rotational values are in degrees (yes) or radians (no).

endheader
time	pelvis_tilt	pelvis_list	pelvis_rotation	pelvis_tx	pelvis_ty	pelvis_tz	hip_flexion_r	hip_adduction_r	hip_rotation_r	knee_angle_r	ankle_angle_r	subtalar_angle_r	mtp_angle_r	hip_flexion_l	hip_adduction_l	hip_rotation_l	knee_angle_l	ankle_angle_l	subtalar_angle_l	mtp_angle_l	lumbar_extension	lumbar_bending	lumbar_rotation	arm_flex_r	arm_add_r	arm_rot_r	elbow_flex_r	pro_sup_r	wrist_flex_r	wrist_dev_r	arm_flex_l	arm_add_l	arm_rot_l	elbow_flex_l	pro_sup_l	wrist_flex_l	wrist_dev_l
4.38	-1.32198	1.51921	-0.674063	0.945775	-0.251937	0.944924	0.422883	-0.0677306	-0.200796	1.05203	0.253669	0	0	0.0712137	-0.0934148	-0.38169	0.247891	0.0458024	0	0	-0.182684	0.0366779	-0.359771	-0.888915	-0.357152	0.134344	1.64361	1.33293	0	0	-0.270798	-0.48378	0.172908	0.875985	0.909799	0	0
4.39	-1.57051	1.49834	-0.44807	0.943451	-0.252317	0.946444	0.431376	-0.0354614	-0.210179	1.01885	0.241894	0	0	0.0743619	-0.128271	-0.401289	0.264468	0.0543207	0	0	-0.186423	0.058521	-0.34452	-0.871777	-0.347567	0.14998	1.60408	1.27521	0	0	-0.263902	-0.480119	0.169257	0.868393	0.920038	0	0
4.4	-1.55904	1.49345	-0.471647	0.942759	-0.255761	0.946964	0.43296	-0.0312638	-0.210958	0.997803	0.245424	0	0	0.0658647	-0.132038	-0.410531	0.268001	0.0594459	0	0	-0.189565	0.0611858	-0.341849	-0.863957	-0.338689	0.159048	1.56978	1.23584	0	0	-0.263513	-0.476078	0.166733	0.867213	0.92944	0	0
4.41	-1.56153	1.48912	-0.480602	0.94212	-0.259052	0.947329	0.43505	-0.0274797	-0.211236	0.97558	0.245842	0	0	0.0592766	-0.135862	-0.419723	0.272373	0.0649147	0	0	-0.191359	0.0640312	-0.339124	-0.854741	-0.329366	0.167231	1.53268	1.20093	0	0	-0.26316	-0.471564	0.164464	0.866238	0.938342	0	0
4.42	-1.56802	1.48516	-0.484769	0.941507	-0.262285	0.947628	0.436786	-0.0241487	-0.210972	0.95157	0.244579	0	0	0.0532924	-0.139379	-0.428664	0.276675	0.0702369	0	0	-0.192584	0.0668732	-0.336342	-0.844098	-0.319028	0.174367	1.4931	1.16751	0	0	-0.262978	-0.466904	0.162916	0.866156	0.947331	0	0
4.43	-1.57331	1.48133	-0.489001	0.940889	-0.265535	0.947904	0.437521	-0.021288	-0.210319	0.926241	0.244353	0	0	0.0472287	-0.142512	-0.435891	0.280589	0.075133	0	0	-0.193632	0.0696657	-0.333859	-0.832026	-0.30811	0.181105	1.45113	1.13714	0	0	-0.263004	-0.462018	0.161509	0.866551	0.956507	0	0
4.44	-1.56743	1.47669	-0.502347	0.940264	-0.268939	0.948269	0.435071	-0.0186269	-0.209809	0.899601	0.241448	0	0	0.039804	-0.145754	-0.44216	0.283821	0.0798802	0	0	-0.195565	0.0730725	-0.33216	-0.819447	-0.296176	0.186104	1.40682	1.11598	0	0	-0.262797	-0.457162	0.161105	0.866895	0.966973	0	0
4.45	-1.55043	1.47157	-0.525055	0.939564	-0.272341	0.948683	0.43012	-0.0164074	-0.209115	0.872392	0.2375	0	0	0.0312455	-0.148926	-0.448256	0.286569	0.084902	0	0	-0.196899	0.0796814	-0.32426	-0.813593	-0.274842	0.176592	1.36325	1.10967	0	0	-0.251573	-0.453724	0.177526	0.857187	0.973499	0	0
4.46	-1.5397	1.46732	-0.541934	0.938915	-0.275686	0.948889	0.426267	-0.0151751	-0.207417	0.846252	0.234653	0	0	0.0232181	-0.151174	-0.454925	0.28875	0.0904457	0	0	-0.19987	0.0828465	-0.320034	-0.811227	-0.239851	0.017538	1.32719	0.155518	0	0	-0.24921	-0.450201	0.181993	0.858635	0.981463	0	0
4.47	-1.54507	1.46535	-0.542107	0.938272	-0.278814	0.948894	0.42536	-0.0157965	-0.206482	0.820454	0.233459	0	0	0.0184717	-0.152188	-0.459935	0.291086	0.095198	0	0	-0.198209	0.0834601	-0.321552	-0.781567	-0.249032	0.180774	1.26604	1.08761	0	0	-0.252396	-0.445868	0.180649	0.861094	0.988374	0	0
4.48	-1.54641	1.46284	-0.545071	0.937773	-0.281908	0.948854	0.423135	-0.0165981	-0.205382	0.794678	0.232809	0	0	0.0134287	-0.153463	-0.463068	0.293875	0.0997262	0	0	-0.198207	0.0854918	-0.32038	-0.765093	-0.235557	0.178318	1.22074	1.07552	0	0	-0.251734	-0.442446	0.184606	0.863034	0.992652	0	0
4.49	-1.54398	1.45966	-0.550422	0.93723	-0.285032	0.948811	0.419081	-0.0169771	-0.203787	0.768024	0.231275	0	0	0.00759666	-0.155058	-0.46532	0.295947	0.104602	0	0	-0.199997	0.088525	-0.316094	-0.757495	-0.198275	0.00458507	1.17209	0.159737	0	0	-0.247443	-0.440055	0.192901	0.864562	0.999652	0	0
4.5	-1.5429	1.45692	-0.553583	0.936614	-0.288188	0.948735	0.41451	-0.0180507	-0.202608	0.740475	0.229729	0	0	0.00185262	-0.156174	-0.467298	0.29691	0.109394	0	0	-0.199988	0.0907848	-0.315109	-0.736974	-0.182101	-0.0131729	1.10843	0.0527517	0	0	-0.246076	-0.436952	0.197942	0.865942	1.00636	0	0
4.51	-1.53964	1.4542	-0.558511	0.935995	-0.291306	0.948647	0.408809	-0.0192008	-0.200624	0.712197	0.227038	0	0	-0.00448888	-0.156966	-0.469451	0.296824	0.11396	0	0	-0.200164	0.0931036	-0.3137	-0.716669	-0.167288	-0.0217433	1.05079	0.0282786	0	0	-0.244035	-0.434038	0.204186	0.867012	1.0124	0	0
4.52	-1.53342	1.45122	-0.565793	0.935317	-0.294393	0.948573	0.401875	-0.0201765	-0.197423	0.683297	0.223276	0	0	-0.0115535	-0.157871	-0.471734	0.296091	0.118229	0	0	-0.200715	0.095577	-0.312033	-0.695531	-0.153485	-0.0258788	0.99259	0.00837394	0	0	-0.24166	-0.431322	0.210844	0.868022	1.02029	0	0
4.53	-1.52679	1.44862	-0.572874	0.934575	-0.297433	0.948434	0.394746	-0.021366	-0.193547	0.654527	0.21906	0	0	-0.0183989	-0.158563	-0.473876	0.295247	0.122442	0	0	-0.20098	0.0976769	-0.310368	-0.673483	-0.140756	-0.0250205	0.934693	0	0	0	-0.239214	-0.42855	0.216922	0.868873	1.03024	0	0
4.54	-1.51996	1.44662	-0.579861	0.933803	-0.300344	0.948223	0.387587	-0.0228106	-0.188409	0.625473	0.214686	0	0	-0.0247101	-0.158892	-0.475912	0.294517	0.126735	0	0	-0.201136	0.0992101	-0.308297	-0.650896	-0.128752	-0.0205194	0.879233	0	0	0	-0.236379	-0.425956	0.22292	0.869705	1.04232	0	0
4.55	-1.51323	1.44501	-0.586968	0.932989	-0.303085	0.947958	0.380442	-0.0240176	-0.181014	0.596033	0.210073	0	0	-0.0307524	-0.159028	-0.47852	0.293793	0.131182	0	0	-0.201455	0.100404	-0.305151	-0.628837	-0.117898	-0.0129544	0.827933	0	0	0	-0.232981	-0.423625	0.229362	0.87065	1.05624	0	0
4.56	-1.50686	1.44343	-0.593584	0.93216	-0.305757	0.947681	0.372608	-0.0248121	-0.171859	0.565475	0.20473	0	0	-0.0368556	-0.159136	-0.481108	0.292815	0.135365	0	0	-0.202021	0.101784	-0.301136	-0.607822	-0.10782	-0.00471991	0.781359	0	0	0	-0.22906	-0.421252	0.235983	0.871633	1.07089	0	0
4.57	-1.501	1.44181	-0.59893	0.931283	-0.308363	0.947377	0.364284	-0.0254205	-0.162076	0.534716	0.199231	0	0	-0.0427756	-0.159484	-0.483242	0.291725	0.139593	0	0	-0.202695	0.103357	-0.297086	-0.587782	-0.0978813	0.00249023	0.739108	0	0	0	-0.225134	-0.419318	0.24293	0.873669	1.08699	0	0
4.58	-1.49586	1.44004	-0.60249	0.930347	-0.310945	0.947057	0.35571	-0.0259379	-0.152229	0.504758	0.194064	0	0	-0.0485719	-0.160114	-0.484451	0.290254	0.143732	0	0	-0.20344	0.105162	-0.293508	-0.567161	-0.089129	0.0133975	0.699511	0	0	0	-0.221507	-0.417718	0.249772	0.876294	1.1058	0	0
4.59	-1.48991	1.43803	-0.605877	0.929368	-0.313562	0.946745	0.346717	-0.026585	-0.142934	0.475905	0.189676	0	0	-0.0544316	-0.160957	-0.484651	0.288677	0.147843	0	0	-0.204442	0.107289	-0.290286	-0.547014	-0.0815567	0.02631	0.665598	0	0	0	-0.218001	-0.416204	0.256555	0.879162	1.12495	0	0
4.6	-1.48481	1.43565	-0.608051	0.928369	-0.316106	0.946453	0.337019	-0.0265719	-0.132652	0.446369	0.183596	0	0	-0.0601286	-0.162311	-0.484344	0.287313	0.151989	0	0	-0.20592	0.109925	-0.286366	-0.527695	-0.0745127	0.0389694	0.636216	0	0	0	-0.213783	-0.415016	0.264531	0.881953	1.14473	0	0
4.61	-1.48253	1.43329	-0.606878	0.927366	-0.318595	0.946159	0.327389	-0.0262547	-0.12149	0.417502	0.176929	0	0	-0.065226	-0.163921	-0.483214	0.285929	0.156132	0	0	-0.207324	0.112874	-0.282105	-0.509107	-0.0687368	0.0535409	0.610407	0	0	0	-0.209019	-0.413924	0.272987	0.884351	1.16737	0	0
4.62	-1.48538	1.43186	-0.599588	0.926227	-0.320978	0.945865	0.318451	-0.025679	-0.107204	0.389527	0.168691	0	0	-0.0688492	-0.165325	-0.480165	0.284175	0.159336	0	0	-0.210773	0.116147	-0.270291	-0.340154	0.00704398	-0.886311	0.194721	0	0	0	-0.196659	-0.414541	0.289371	0.88506	1.19146	0	0
4.63	-1.4668	1.42635	-0.614435	0.925347	-0.323543	0.945622	0.304665	-0.0244987	-0.0948853	0.362799	0.160584	0	0	-0.0786122	-0.16802	-0.480574	0.281747	0.164736	0	0	-0.217169	0.123071	-0.261738	-0.28488	-0.0465705	-1.38311	0.013911	0.168392	0	0	-0.187954	-0.41351	0.302632	0.887013	1.20657	0	0
4.64	-1.46132	1.42391	-0.614828	0.924177	-0.32609	0.945329	0.293975	-0.0246701	-0.0828043	0.336844	0.151053	0	0	-0.084798	-0.169362	-0.478929	0.278313	0.168044	0	0	-0.218675	0.126343	-0.257292	-0.27447	-0.0450126	-1.39959	0.0132161	0.20692	0	0	-0.182866	-0.413054	0.312506	0.888859	1.21888	0	0
4.65	-1.45361	1.422	-0.616779	0.922978	-0.32859	0.945045	0.283354	-0.0253246	-0.0691106	0.312733	0.140617	0	0	-0.0912502	-0.169934	-0.475771	0.27377	0.170467	0	0	-0.220132	0.128981	-0.253277	-0.264515	-0.0426763	-1.40854	0.0157521	0.21888	0	0	-0.177835	-0.412898	0.322462	0.890587	1.23392	0	0
4.66	-1.4419	1.42052	-0.622374	0.921793	-0.331093	0.944796	0.272599	-0.0268212	-0.0555453	0.290431	0.131726	0	0	-0.0984221	-0.169587	-0.471719	0.268076	0.172204	0	0	-0.221869	0.131104	-0.249572	-0.255121	-0.0416201	-1.4194	0.0166508	0.218856	0	0	-0.172993	-0.412603	0.331461	0.892013	1.24876	0	0
4.67	-1.42501	1.41927	-0.632904	0.920577	-0.33361	0.944599	0.261795	-0.029104	-0.0426397	0.271011	0.127121	0	0	-0.106545	-0.168524	-0.467933	0.261363	0.173611	0	0	-0.224149	0.132635	-0.246004	-0.24518	-0.0426404	-1.43593	0.0135961	0.203511	0	0	-0.168461	-0.412234	0.339047	0.893297	1.26162	0	0
